# Blender v3.2.2 OBJ File: ''
# www.blender.org
mtllib player.mtl
o 立方体
v 0.000000 -2.000000 -5.572648
v 6.099937 0.105627 -6.751973
v 0.000000 1.248237 2.686722
v -6.099937 0.105627 -6.751973
v 0.209247 2.000000 -3.761411
v -0.209247 2.000000 -3.761411
v -1.095106 1.248641 -3.761411
v 1.095106 1.248641 -3.761411
vt 0.500000 0.000000
vt 0.625000 0.000000
vt 0.500000 0.250000
vt 0.219145 0.632453
vt 0.187683 0.695159
vt 0.000000 0.671172
vt 0.000000 0.258166
vt 0.127698 0.279011
vt 0.302490 0.632452
vt 0.860732 0.000000
vt 0.860732 0.538925
vt 0.680363 0.191249
vt 0.868046 0.843766
vt 0.899509 0.906472
vt 0.680363 0.867753
vt 0.707695 0.174551
vt 0.375000 0.000000
vt 0.375000 0.250000
vt 0.519391 0.685937
vt 0.302490 0.329409
vt 0.519391 0.000000
vt 0.302490 0.000000
vt 0.680363 0.685937
vt 0.519391 0.363071
vt 0.680363 0.000000
vt 0.219145 1.000000
vt 0.899509 0.538925
vn -0.2462 -0.9683 -0.0419
vn 0.3197 0.3769 -0.8693
vn 0.9977 0.0635 -0.0250
vn -0.9977 0.0635 -0.0250
vn -0.3197 0.3769 -0.8693
vn -0.9071 -0.3917 0.1540
vn 0.9071 -0.3917 0.1540
vn 0.3584 0.9259 0.1196
vn -0.3584 0.9259 0.1196
vn 0.2462 -0.9683 -0.0419
vn -0.5073 -0.5981 -0.6204
vn 0.5073 -0.5981 -0.6204
usemtl マテリアル
s off
f 8/1/1 2/2/1 3/3/1
f 5/4/2 8/5/2 1/6/2
f 1/7/3 6/8/3 3/9/3
f 1/10/4 3/11/4 5/12/4
f 7/13/5 6/14/5 1/15/5
f 3/11/6 7/16/6 1/10/6
f 1/17/7 8/1/7 3/18/7
f 2/19/8 5/20/8 3/21/8
f 4/22/9 3/9/9 6/8/9
f 4/23/10 7/24/10 3/25/10
f 5/4/11 2/26/11 8/5/11
f 7/13/12 4/27/12 6/14/12
